<svg xmlns="http://www.w3.org/2000/svg" xmlns:xlink="http://www.w3.org/1999/xlink" width="500" zoomAndPan="magnify" viewBox="0 0 375 374.999991" height="500" preserveAspectRatio="xMidYMid meet" version="1.0"><defs><g/><clipPath id="af9cf373a5"><path d="M 128.785156 162.871094 L 178 162.871094 L 178 253.746094 L 128.785156 253.746094 Z M 128.785156 162.871094 " clip-rule="nonzero"/></clipPath><clipPath id="b34f71f365"><path d="M 160 129.269531 L 201.144531 129.269531 L 201.144531 170 L 160 170 Z M 160 129.269531 " clip-rule="nonzero"/></clipPath></defs><g clip-path="url(#af9cf373a5)"><path fill="#ff604a" d="M 162.046875 253.738281 C 162.164062 248.925781 162.890625 244.15625 163.554688 239.417969 C 164.195312 234.667969 164.921875 229.929688 165.644531 225.191406 C 166.339844 220.445312 167.109375 215.714844 167.914062 210.988281 L 170.460938 196.832031 L 171.011719 197.269531 C 167.464844 198.59375 163.609375 198.664062 159.976562 198.019531 C 156.328125 197.355469 152.839844 196.074219 149.464844 194.621094 C 146.078125 193.21875 142.746094 191.570312 139.292969 190.570312 C 137.570312 190.101562 135.78125 189.882812 134.09375 190.238281 C 132.417969 190.570312 130.824219 191.425781 129.925781 192.789062 L 128.785156 192.132812 C 130.199219 189.007812 132.21875 186.03125 135.105469 183.9375 C 137.976562 181.792969 141.75 181.03125 145.226562 181.429688 C 148.746094 181.773438 152.027344 183.1875 155.003906 184.84375 C 157.996094 186.472656 160.753906 188.523438 163.609375 190.074219 C 165.046875 190.84375 166.546875 191.496094 168.085938 191.773438 C 169.621094 192.09375 171.199219 191.929688 172.535156 191.21875 C 173.183594 190.839844 173.785156 190.371094 174.273438 189.78125 C 174.742188 189.175781 175.128906 188.5 175.417969 187.761719 C 175.984375 186.289062 176.242188 184.648438 176.304688 183.003906 C 176.433594 179.710938 175.917969 176.34375 175.730469 172.984375 L 174.960938 162.914062 L 175.117188 162.902344 L 176.324219 172.929688 L 176.910156 177.941406 C 177.105469 179.613281 177.304688 181.3125 177.289062 183.023438 C 177.296875 184.742188 177.121094 186.492188 176.546875 188.179688 C 176.242188 189.023438 175.816406 189.832031 175.265625 190.570312 C 174.695312 191.292969 173.976562 191.902344 173.183594 192.386719 C 171.566406 193.3125 169.605469 193.542969 167.839844 193.226562 C 166.058594 192.945312 164.414062 192.269531 162.871094 191.496094 C 159.796875 189.84375 157.128906 187.863281 154.203125 186.292969 C 151.3125 184.679688 148.238281 183.472656 145.042969 183.085938 C 141.855469 182.679688 138.582031 183.304688 135.988281 185.175781 C 133.367188 187.011719 131.40625 189.75 129.980469 192.6875 L 128.84375 192.039062 C 130.042969 190.34375 131.980469 189.398438 133.886719 189.09375 C 135.832031 188.769531 137.773438 189.101562 139.5625 189.65625 C 143.125 190.84375 146.34375 192.601562 149.699219 194.082031 C 153.042969 195.542969 156.457031 196.949219 160.066406 197.5 C 163.632812 198.074219 167.402344 197.964844 170.703125 196.523438 L 171.355469 196.238281 L 171.253906 196.964844 L 169.242188 211.203125 C 168.535156 215.941406 167.785156 220.679688 166.964844 225.398438 C 166.171875 230.128906 165.378906 234.855469 164.507812 239.570312 C 163.679688 244.292969 162.703125 248.980469 162.210938 253.746094 L 162.046875 253.738281 " fill-opacity="1" fill-rule="nonzero"/></g><g clip-path="url(#b34f71f365)"><path fill="#ff604a" d="M 168.648438 160.984375 C 170.109375 162.535156 171.929688 163.734375 173.910156 164.480469 C 175.890625 165.230469 178.027344 165.558594 180.125 165.398438 C 182.203125 165.234375 184.285156 164.648438 185.957031 163.445312 C 187.613281 162.277344 188.917969 160.414062 188.660156 158.464844 L 189.253906 158.882812 C 185.207031 159.867188 181.9375 162.714844 178.242188 164.929688 C 176.371094 166.027344 174.359375 166.972656 172.171875 167.4375 C 170.003906 167.910156 167.585938 167.777344 165.507812 166.710938 C 163.457031 165.640625 161.871094 163.777344 161.121094 161.589844 C 160.945312 161.035156 160.796875 160.472656 160.734375 159.898438 C 160.664062 159.335938 160.609375 158.652344 160.933594 157.933594 C 161.265625 157.203125 162.066406 156.746094 162.765625 156.691406 C 163.472656 156.617188 164.148438 156.777344 164.734375 157.101562 C 165.308594 157.402344 165.851562 158.023438 166.078125 158.609375 C 166.347656 159.203125 166.441406 159.835938 166.460938 160.433594 C 166.476562 161.628906 166.175781 162.742188 165.953125 163.746094 C 165.726562 164.753906 165.570312 165.746094 165.765625 166.609375 C 165.941406 167.5 166.507812 168.074219 167.359375 168.347656 C 168.183594 168.597656 169.183594 168.527344 169.921875 168.097656 C 170.695312 167.671875 171.097656 166.96875 171.136719 165.992188 C 171.183594 165.054688 171.027344 163.949219 170.992188 162.878906 C 170.933594 161.804688 170.898438 160.734375 170.886719 159.660156 C 170.839844 155.367188 171.171875 151.078125 171.898438 146.84375 C 172.285156 144.734375 172.824219 142.625 173.710938 140.644531 C 174.605469 138.675781 175.835938 136.800781 177.578125 135.445312 C 179.328125 134.113281 181.515625 133.398438 183.703125 133.414062 C 185.878906 133.398438 188.160156 134.304688 189.472656 136.136719 L 189.679688 136.417969 L 189.351562 136.511719 C 185.46875 137.652344 181.035156 136.550781 178.128906 133.710938 C 177.773438 133.363281 177.398438 132.957031 177.210938 132.40625 C 177.035156 131.867188 177.085938 131.21875 177.429688 130.738281 C 178.121094 129.804688 179.199219 129.472656 180.203125 129.3125 C 182.285156 129.148438 184.234375 129.542969 186.171875 130.085938 C 188.09375 130.675781 189.929688 131.539062 191.605469 132.65625 C 193.21875 133.789062 194.972656 135.070312 195.6875 137.199219 C 196.054688 138.25 195.804688 139.621094 194.925781 140.425781 C 194.050781 141.257812 192.90625 141.480469 191.882812 141.558594 C 190.824219 141.632812 189.820312 141.507812 188.835938 141.40625 C 187.84375 141.300781 186.855469 141.164062 185.875 140.996094 C 181.9375 140.292969 178.117188 139.21875 174.410156 137.511719 C 173.492188 137.039062 172.578125 136.449219 171.839844 135.59375 C 171.472656 135.167969 171.164062 134.675781 170.953125 134.132812 C 170.734375 133.574219 170.667969 133.019531 170.585938 132.554688 C 170.503906 132.09375 170.402344 131.695312 170.234375 131.4375 C 170.039062 131.179688 169.921875 131.105469 169.621094 131.101562 C 169.039062 131.074219 168.296875 131.726562 168.339844 132.144531 C 168.222656 132.492188 169.164062 133.257812 169.714844 134.261719 C 170.273438 135.25 170.515625 136.367188 170.554688 137.445312 C 170.617188 139.601562 170.027344 141.589844 169.472656 143.480469 C 168.878906 145.386719 168.347656 147.183594 168.171875 149.082031 C 167.972656 150.957031 168.070312 152.851562 168.566406 154.621094 C 169.054688 156.382812 170.011719 157.972656 171.367188 159.183594 C 172.730469 160.398438 174.421875 161.257812 176.210938 161.910156 C 178.003906 162.535156 179.886719 163.078125 181.699219 163.140625 C 183.511719 163.222656 185.25 162.640625 186.730469 161.566406 C 189.761719 159.414062 191.324219 155.753906 192.316406 152.046875 C 192.84375 150.183594 193.1875 148.234375 193.855469 146.289062 C 194.1875 145.320312 194.617188 144.363281 195.195312 143.476562 C 195.75 142.625 196.65625 141.570312 198.074219 141.5625 C 199.480469 141.59375 200.40625 142.667969 200.835938 143.6875 C 201.292969 144.71875 201.3125 146.0625 200.625 147.082031 C 200 148.050781 199.007812 148.695312 197.992188 149.035156 C 196.96875 149.375 195.910156 149.488281 194.875 149.433594 C 190.742188 149.171875 187.148438 147.082031 183.328125 147.246094 C 181.449219 147.308594 179.648438 148.101562 178.296875 149.4375 C 176.949219 150.765625 175.980469 152.488281 175.433594 154.332031 C 174.367188 158.078125 175.003906 162.105469 175.691406 165.941406 L 175.535156 165.972656 C 174.722656 162.152344 173.910156 158.140625 174.886719 154.183594 C 175.390625 152.238281 176.324219 150.359375 177.773438 148.902344 C 179.191406 147.425781 181.21875 146.488281 183.28125 146.382812 C 187.449219 146.167969 191.136719 148.226562 194.910156 148.359375 C 196.730469 148.414062 198.738281 147.882812 199.625 146.4375 C 200.039062 145.800781 200.039062 144.933594 199.691406 144.175781 C 199.375 143.433594 198.699219 142.832031 198.074219 142.863281 C 197.4375 142.84375 196.800781 143.445312 196.332031 144.207031 C 195.847656 144.984375 195.480469 145.84375 195.1875 146.738281 C 194.605469 148.539062 194.292969 150.488281 193.785156 152.433594 C 193.292969 154.367188 192.6875 156.320312 191.710938 158.140625 C 190.742188 159.964844 189.40625 161.644531 187.679688 162.886719 C 185.984375 164.140625 183.792969 164.878906 181.65625 164.777344 C 179.515625 164.710938 177.558594 164.128906 175.648438 163.472656 C 173.734375 162.785156 171.839844 161.847656 170.246094 160.433594 C 168.652344 159.027344 167.492188 157.109375 166.933594 155.082031 C 165.796875 150.988281 166.660156 146.714844 167.933594 143.019531 C 168.503906 141.15625 169.039062 139.292969 168.996094 137.496094 C 168.972656 136.601562 168.785156 135.75 168.378906 135.007812 C 168.160156 134.632812 167.949219 134.332031 167.597656 133.925781 C 167.273438 133.542969 166.824219 132.9375 166.828125 132.113281 C 166.847656 131.3125 167.300781 130.699219 167.789062 130.292969 C 168.296875 129.886719 168.910156 129.632812 169.617188 129.613281 C 170.320312 129.5625 171.148438 130.0625 171.472656 130.644531 C 171.835938 131.21875 171.933594 131.8125 172.023438 132.3125 C 172.152344 133.332031 172.367188 133.992188 172.941406 134.667969 C 173.480469 135.320312 174.234375 135.851562 175.054688 136.289062 C 178.472656 137.9375 182.285156 139.105469 186.085938 139.839844 C 187.042969 140.019531 188.003906 140.167969 188.96875 140.292969 C 189.941406 140.414062 190.898438 140.542969 191.8125 140.496094 C 192.722656 140.449219 193.644531 140.238281 194.226562 139.6875 C 194.820312 139.152344 195.019531 138.292969 194.761719 137.476562 C 194.25 135.769531 192.667969 134.46875 191.117188 133.367188 C 189.535156 132.261719 187.792969 131.398438 185.957031 130.800781 C 184.128906 130.238281 182.136719 129.832031 180.285156 129.9375 C 179.386719 130.054688 178.410156 130.386719 177.917969 131.070312 C 177.671875 131.40625 177.640625 131.832031 177.757812 132.226562 C 177.890625 132.617188 178.191406 132.976562 178.53125 133.304688 C 181.253906 136.011719 185.503906 137.105469 189.210938 136.042969 L 189.082031 136.417969 C 187.886719 134.726562 185.753906 133.917969 183.703125 133.9375 C 181.636719 133.949219 179.566406 134.648438 177.941406 135.914062 C 176.324219 137.199219 175.128906 138.996094 174.316406 140.90625 C 173.503906 142.839844 173.027344 144.902344 172.695312 146.980469 C 172.085938 151.164062 171.859375 155.414062 171.996094 159.636719 C 172.027344 160.691406 172.085938 161.746094 172.164062 162.804688 C 172.226562 163.859375 172.410156 164.867188 172.382812 166.058594 C 172.367188 166.652344 172.246094 167.265625 171.941406 167.871094 C 171.617188 168.460938 171.128906 168.929688 170.578125 169.242188 C 169.472656 169.878906 168.164062 169.972656 166.957031 169.628906 C 166.359375 169.441406 165.777344 169.117188 165.316406 168.636719 C 164.839844 168.148438 164.566406 167.507812 164.433594 166.914062 C 164.15625 165.679688 164.371094 164.507812 164.597656 163.453125 C 164.832031 162.390625 165.070312 161.410156 165.046875 160.464844 C 165.007812 159.527344 164.714844 158.695312 164.035156 158.359375 C 163.339844 157.953125 162.394531 158.046875 162.210938 158.554688 C 161.945312 159.085938 162.164062 160.277344 162.441406 161.148438 C 163.050781 162.996094 164.402344 164.617188 166.128906 165.527344 C 167.859375 166.441406 169.941406 166.605469 171.914062 166.183594 C 173.910156 165.785156 175.824219 164.921875 177.625 163.878906 C 181.210938 161.785156 184.667969 158.921875 189.035156 157.941406 L 189.574219 157.816406 L 189.625 158.359375 C 189.738281 159.546875 189.417969 160.746094 188.800781 161.714844 C 188.191406 162.703125 187.347656 163.492188 186.429688 164.121094 C 184.574219 165.402344 182.328125 165.953125 180.15625 166.027344 C 177.960938 166.121094 175.765625 165.691406 173.765625 164.847656 C 171.753906 164.007812 169.949219 162.714844 168.523438 161.089844 L 168.648438 160.984375 " fill-opacity="1" fill-rule="nonzero"/></g><g fill="#ff5757" fill-opacity="1"><g transform="translate(85.343041, 162.753914)"><g><path d="M 23.359375 -16.15625 C 22.160156 -17.40625 20.660156 -17.507812 20.660156 -17.507812 L 21.410156 -17.507812 C 26.613281 -17.507812 30.8125 -21.410156 30.8125 -26.261719 C 30.8125 -31.113281 26.613281 -35.015625 21.410156 -35.015625 L 1.5 -35.015625 L 1.5 -34.714844 C 3.152344 -34.714844 4.503906 -33.363281 4.503906 -31.714844 C 4.503906 -18.609375 4.503906 -16.40625 4.503906 -3.300781 C 4.503906 -1.652344 3.152344 -0.300781 1.5 -0.300781 L 1.5 0 L 16.355469 0 L 16.355469 -0.300781 C 14.65625 -0.300781 13.304688 -1.652344 13.304688 -3.300781 L 13.304688 -15.007812 C 13.304688 -15.65625 13.304688 -16.507812 13.304688 -17.359375 L 13.554688 -17.359375 C 17.257812 -17.359375 15.65625 2.152344 27.160156 2.101562 C 29.8125 2.050781 32.265625 1.300781 33.515625 0 L 33.515625 -0.300781 C 27.761719 0.800781 27.460938 -12.003906 23.359375 -16.15625 Z M 16.605469 -17.65625 L 13.304688 -17.65625 C 13.304688 -18.507812 13.304688 -19.359375 13.304688 -34.714844 L 16.605469 -34.714844 C 19.558594 -34.714844 21.960938 -30.914062 21.960938 -26.210938 C 21.960938 -21.460938 19.558594 -17.65625 16.605469 -17.65625 Z M 16.605469 -17.65625 "/></g></g></g><g fill="#ff5757" fill-opacity="1"><g transform="translate(119.8563, 162.753914)"><g><path d="M 22.308594 -3.75 L 22.308594 -18.859375 C 22.308594 -21.308594 20.660156 -23.011719 18.757812 -23.960938 C 16.855469 -24.960938 14.355469 -25.3125 11.753906 -24.910156 C 8.203125 -24.410156 3.351562 -21.808594 3.351562 -17.90625 C 3.351562 -15.757812 5.050781 -14.054688 7.203125 -14.054688 C 9.355469 -14.054688 11.105469 -15.757812 11.105469 -17.90625 C 11.105469 -20.207031 8.953125 -20.859375 8.953125 -22.710938 C 8.953125 -23.761719 10.003906 -24.359375 11.804688 -24.609375 C 14.257812 -25.011719 16.65625 -24.660156 18.609375 -23.710938 C 20.207031 -22.910156 21.558594 -21.460938 21.558594 -20.109375 C 21.558594 -16.257812 9.855469 -14.554688 5.550781 -11.855469 C 2.800781 -10.15625 1.199219 -7.203125 2 -4.351562 C 2.75 -1.550781 5.550781 0.25 8.703125 0.25 C 11.503906 0.25 13.554688 -1 14.757812 -1.902344 L 14.757812 -0.648438 C 14.757812 -0.148438 15.15625 0.25 15.65625 0.25 C 15.707031 0.25 15.757812 0.25 15.757812 0.25 L 24.359375 -1 L 24.359375 -1.300781 C 23.210938 -1.5 22.308594 -2.550781 22.308594 -3.75 Z M 14.757812 -2.25 C 13.65625 -1.449219 11.957031 -1.75 10.855469 -2.953125 C 9.804688 -4.101562 9.203125 -5.953125 9.355469 -8.355469 C 9.652344 -12.554688 12.707031 -14.15625 14.757812 -15.105469 Z M 14.757812 -2.25 "/></g></g></g><g fill="#ff5757" fill-opacity="1"><g transform="translate(145.466136, 162.753914)"><g><path d="M 10.804688 -34.113281 C 10.804688 -34.613281 10.453125 -35.015625 9.953125 -35.015625 C 9.90625 -35.015625 9.855469 -35.015625 9.804688 -35.015625 L 1.25 -33.765625 L 1.25 -33.464844 C 2.402344 -33.265625 3.300781 -32.214844 3.300781 -31.011719 L 3.300781 -2.75 C 3.300781 -1.550781 2.402344 -0.5 1.25 -0.300781 L 1.25 0 L 12.855469 0 L 12.855469 -0.300781 C 11.707031 -0.5 10.804688 -1.550781 10.804688 -2.75 Z M 10.804688 -34.113281 "/></g></g></g><g fill="#ff5757" fill-opacity="1"><g transform="translate(159.576242, 162.753914)"><g/></g></g><g fill="#ff5757" fill-opacity="1"><g transform="translate(173.58162, 162.753914)"><g/></g></g><g fill="#ff5757" fill-opacity="1"><g transform="translate(187.586997, 162.753914)"><g/></g></g><g fill="#ff5757" fill-opacity="1"><g transform="translate(201.597408, 162.753914)"><g><path d="M 23.960938 -2.75 L 23.960938 -18.207031 C 23.960938 -26.660156 15.40625 -25.8125 10.804688 -23.511719 L 10.804688 -23.710938 C 10.804688 -24.210938 10.453125 -24.5625 9.953125 -24.5625 C 9.90625 -24.5625 9.855469 -24.5625 9.804688 -24.5625 L 1.25 -23.308594 L 1.25 -23.011719 C 2.402344 -22.808594 3.300781 -21.808594 3.300781 -20.558594 L 3.300781 -2.75 C 3.300781 -1.550781 2.402344 -0.5 1.25 -0.300781 L 1.25 0 L 12.855469 0 L 12.855469 -0.300781 C 11.707031 -0.5 10.804688 -1.550781 10.804688 -2.75 L 10.804688 -23.160156 C 11.605469 -23.558594 13.457031 -24.3125 15.65625 -24.3125 C 17.65625 -24.3125 19.058594 -23.660156 19.058594 -22.558594 C 19.058594 -20.710938 16.457031 -20.058594 16.457031 -17.507812 L 16.457031 -2.75 C 16.457031 -1.550781 15.558594 -0.5 14.40625 -0.300781 L 14.40625 0 L 26.011719 0 L 26.011719 -0.300781 C 24.859375 -0.5 23.960938 -1.550781 23.960938 -2.75 Z M 23.960938 -2.75 "/></g></g></g><g fill="#ff5757" fill-opacity="1"><g transform="translate(228.857876, 162.753914)"><g><path d="M 7.253906 -37.367188 L 6.953125 -37.566406 L 1.75 -26.261719 L 6.753906 -23.011719 L 7.003906 -23.460938 Z M 7.253906 -37.367188 "/></g></g></g><g fill="#ff5757" fill-opacity="1"><g transform="translate(237.861335, 162.753914)"><g><path d="M 20.609375 -6.753906 C 20.007812 -13.605469 8.105469 -16.558594 8.503906 -21.859375 C 8.652344 -23.960938 10.054688 -24.910156 11.804688 -24.660156 C 16.65625 -24.011719 18.109375 -19.257812 18.707031 -16.257812 C 18.808594 -16.257812 18.957031 -16.257812 18.957031 -16.257812 L 18.957031 -24.359375 L 18.707031 -24.359375 C 18.457031 -24.109375 18.007812 -23.859375 17.457031 -23.808594 C 15.308594 -23.660156 13.804688 -25.0625 10.203125 -25.0625 C 6.503906 -25.0625 1.75 -23.210938 1.75 -19.207031 C 1.75 -12.207031 14.40625 -8.304688 14.40625 -3.300781 C 14.40625 -1.5 12.957031 -0.0507812 11.15625 -0.0507812 C 10.15625 -0.0507812 9.652344 -0.101562 9.003906 -0.199219 C 8.003906 -0.351562 7.152344 -1.101562 7.152344 -1.851562 C 7.152344 -3.152344 9.503906 -3.550781 9.503906 -6.253906 C 9.503906 -8.355469 7.753906 -10.105469 5.601562 -10.105469 C 3.5 -10.105469 1.75 -8.355469 1.75 -6.253906 C 1.75 -2.550781 6.050781 0.25 11.15625 0.25 C 16.355469 0.25 20.910156 -2.800781 20.609375 -6.753906 Z M 20.609375 -6.753906 "/></g></g></g><g fill="#ff5757" fill-opacity="1"><g transform="translate(194.178976, 205.595477)"><g><path d="M 35.019531 -37.160156 L 35.019531 -37.484375 L 19.117188 -37.484375 L 19.117188 -37.160156 C 20.882812 -37.160156 22.328125 -35.714844 22.328125 -33.949219 L 22.328125 -18.902344 L 14.242188 -18.902344 L 14.242188 -33.949219 C 14.242188 -35.714844 15.6875 -37.160156 17.511719 -37.160156 L 17.511719 -37.484375 L 1.605469 -37.484375 L 1.605469 -37.160156 C 3.375 -37.160156 4.820312 -35.714844 4.820312 -33.949219 L 4.820312 -3.535156 C 4.820312 -1.765625 3.375 -0.320312 1.605469 -0.320312 L 1.605469 0 L 17.511719 0 L 17.511719 -0.320312 C 15.6875 -0.320312 14.242188 -1.765625 14.242188 -3.535156 L 14.242188 -18.582031 L 22.328125 -18.582031 L 22.328125 -3.535156 C 22.328125 -1.765625 20.882812 -0.320312 19.117188 -0.320312 L 19.117188 0 L 35.019531 0 L 35.019531 -0.320312 C 33.199219 -0.320312 31.753906 -1.765625 31.753906 -3.535156 L 31.753906 -33.949219 C 31.753906 -35.714844 33.199219 -37.160156 35.019531 -37.160156 Z M 35.019531 -37.160156 "/></g></g></g><g fill="#ff5757" fill-opacity="1"><g transform="translate(230.80383, 205.595477)"><g><path d="M 25.648438 -4.015625 L 25.648438 -25.382812 C 25.648438 -25.917969 25.273438 -26.292969 24.738281 -26.292969 L 24.578125 -26.292969 L 15.421875 -24.953125 L 15.421875 -24.632812 C 16.652344 -24.417969 17.617188 -23.347656 17.617188 -22.007812 L 17.617188 -1.765625 C 17.296875 -1.605469 15.101562 -0.535156 12.421875 -0.535156 C 10.335938 -0.535156 8.78125 -1.285156 8.78125 -2.410156 C 8.78125 -4.390625 11.566406 -5.085938 11.566406 -7.816406 L 11.566406 -25.382812 C 11.566406 -25.917969 11.191406 -26.292969 10.65625 -26.292969 L 10.496094 -26.292969 L 1.339844 -24.953125 L 1.339844 -24.632812 C 2.570312 -24.417969 3.535156 -23.347656 3.535156 -22.007812 L 3.535156 -7.066406 C 3.535156 1.980469 12.691406 1.070312 17.617188 -1.445312 L 17.617188 -0.640625 C 17.617188 -0.160156 18.046875 0.269531 18.527344 0.269531 L 18.6875 0.269531 L 27.84375 -1.070312 L 27.84375 -1.390625 C 26.613281 -1.605469 25.648438 -2.730469 25.648438 -4.015625 Z M 25.648438 -4.015625 "/></g></g></g><g fill="#ff5757" fill-opacity="1"><g transform="translate(259.985914, 205.595477)"><g><path d="M 27.683594 -14.351562 C 26.933594 -21.847656 21.3125 -27.417969 15.421875 -26.828125 C 13.976562 -26.667969 12.691406 -26.292969 11.566406 -25.703125 L 11.566406 -36.519531 C 11.566406 -37.054688 11.191406 -37.484375 10.65625 -37.484375 C 10.601562 -37.484375 10.546875 -37.484375 10.496094 -37.484375 L 1.339844 -36.144531 L 1.339844 -35.824219 C 2.570312 -35.609375 3.535156 -34.484375 3.535156 -33.199219 L 3.535156 -2.945312 C 3.535156 -1.660156 2.570312 -0.535156 1.339844 -0.320312 L 1.339844 0 L 10.441406 0 C 11.085938 0 11.566406 -0.480469 11.566406 -1.125 L 11.566406 -1.980469 C 13.601562 -0.375 15.957031 0.480469 18.421875 0.214844 C 24.308594 -0.375 28.433594 -6.90625 27.683594 -14.351562 Z M 13.386719 -1.980469 C 12.746094 -1.980469 12.15625 -2.140625 11.566406 -2.410156 L 11.566406 -25.328125 C 12.15625 -25.59375 12.746094 -25.757812 13.386719 -25.757812 C 16.867188 -25.757812 19.757812 -20.453125 19.757812 -13.867188 C 19.757812 -7.28125 16.867188 -1.980469 13.386719 -1.980469 Z M 13.386719 -1.980469 "/></g></g></g></svg>